<?xml version="1.0" encoding="utf-8"?>
<!-- Generator: Adobe Illustrator 16.0.0, SVG Export Plug-In . SVG Version: 6.00 Build 0)  -->
<!DOCTYPE svg PUBLIC "-//W3C//DTD SVG 1.1//EN" "http://www.w3.org/Graphics/SVG/1.1/DTD/svg11.dtd">
<svg version="1.1" id="Layer_1" xmlns="http://www.w3.org/2000/svg" xmlns:xlink="http://www.w3.org/1999/xlink" x="0px" y="0px"
	 width="610.467px" height="139.988px" viewBox="0 0 610.467 139.988" enable-background="new 0 0 610.467 139.988"
	 xml:space="preserve">
<g>
	<path fill="#FFFFFF" d="M11.356,117.355c0.91,0,1.729,0.06,2.454,0.175c0.725,0.12,1.34,0.332,1.847,0.646
		c0.504,0.313,0.892,0.741,1.163,1.288c0.271,0.549,0.402,1.254,0.402,2.113c0,0.507-0.074,0.999-0.226,1.479
		c-0.153,0.48-0.376,0.91-0.671,1.289c-0.295,0.382-0.649,0.698-1.062,0.948c-0.414,0.255-0.887,0.413-1.429,0.482v0.051
		c0.861,0.237,1.522,0.685,1.987,1.354c0.462,0.665,0.693,1.436,0.693,2.312c0,0.979-0.189,1.837-0.568,2.581
		c-0.379,0.739-0.89,1.354-1.528,1.845c-0.643,0.488-1.375,0.861-2.201,1.111c-0.826,0.257-1.696,0.381-2.606,0.381H0l3.769-18.057
		H11.356z M9.433,132.327c0.912,0,1.658-0.242,2.24-0.731c0.58-0.49,0.873-1.218,0.873-2.176c0-0.473-0.099-0.845-0.293-1.114
		c-0.193-0.271-0.441-0.476-0.744-0.619c-0.305-0.145-0.642-0.233-1.013-0.267c-0.371-0.031-0.732-0.051-1.086-0.051H5.515
		l-1.062,4.958H9.433z M10.572,124.664c0.725,0,1.352-0.197,1.883-0.596c0.532-0.396,0.797-0.991,0.797-1.781
		c0-0.709-0.189-1.193-0.567-1.452c-0.38-0.265-0.891-0.395-1.529-0.395h-4.2l-0.885,4.224H10.572z"/>
	<path fill="#FFFFFF" d="M19.583,124.245c0.388-0.547,0.86-0.991,1.416-1.326c0.559-0.337,1.18-0.577,1.874-0.722
		c0.688-0.142,1.406-0.213,2.148-0.213c0.589,0,1.204,0.04,1.847,0.124c0.639,0.085,1.229,0.253,1.77,0.493
		c0.539,0.244,0.982,0.591,1.328,1.037c0.344,0.446,0.509,1.042,0.495,1.781c0,0.625-0.096,1.361-0.28,2.201l-1.163,5.261
		c-0.066,0.238-0.113,0.528-0.138,0.874c-0.026,0.343-0.04,0.644-0.04,0.898c0,0.221,0.042,0.47,0.126,0.758h-3.589v-1.292
		c-0.49,0.558-1.09,0.968-1.797,1.229c-0.706,0.26-1.44,0.39-2.2,0.39c-0.706,0-1.328-0.092-1.859-0.278
		c-0.531-0.186-0.971-0.433-1.324-0.747c-0.356-0.31-0.619-0.672-0.785-1.087c-0.169-0.408-0.253-0.846-0.253-1.3
		c0-1.266,0.434-2.276,1.304-3.037c0.868-0.757,2.093-1.229,3.679-1.416c0.842-0.097,1.575-0.173,2.199-0.229
		c0.625-0.048,1.142-0.127,1.557-0.238c0.413-0.107,0.72-0.268,0.922-0.482c0.202-0.208,0.305-0.525,0.305-0.947
		c0-0.335-0.077-0.605-0.229-0.807c-0.153-0.204-0.341-0.365-0.568-0.481c-0.228-0.116-0.472-0.196-0.734-0.242
		c-0.261-0.04-0.509-0.064-0.746-0.064c-0.641,0-1.213,0.161-1.72,0.471c-0.504,0.312-0.816,0.797-0.934,1.455h-3.364
		C18.94,125.48,19.194,124.795,19.583,124.245 M24.944,129.631c-0.521,0.06-1.044,0.107-1.567,0.139
		c-0.337,0.034-0.667,0.089-0.987,0.168c-0.319,0.076-0.601,0.188-0.847,0.338c-0.244,0.151-0.443,0.358-0.593,0.62
		c-0.152,0.262-0.228,0.596-0.228,1.001c0,0.49,0.199,0.854,0.595,1.1c0.396,0.245,0.855,0.367,1.376,0.367
		c0.558,0,1.025-0.089,1.404-0.266c0.38-0.179,0.7-0.404,0.961-0.683c0.263-0.278,0.47-0.595,0.619-0.95
		c0.153-0.354,0.278-0.706,0.381-1.063l0.354-1.264C25.955,129.41,25.466,129.573,24.944,129.631"/>
	<path fill="#FFFFFF" d="M36.659,122.337l-0.403,1.819h0.049c1.164-1.45,2.69-2.175,4.579-2.175c2.543,0,3.817,1.174,3.817,3.517
		c0,0.135-0.017,0.308-0.049,0.519c-0.034,0.209-0.071,0.425-0.113,0.644c-0.045,0.219-0.087,0.426-0.127,0.622
		c-0.042,0.189-0.072,0.351-0.089,0.465l-1.618,7.664h-3.592l1.593-7.664c0.035-0.2,0.082-0.472,0.14-0.809
		c0.057-0.336,0.086-0.6,0.086-0.785c0-0.389-0.18-0.705-0.543-0.96c-0.362-0.25-0.755-0.379-1.175-0.379
		c-0.538,0-1.016,0.105-1.429,0.316c-0.413,0.212-0.767,0.485-1.062,0.82c-0.295,0.337-0.541,0.727-0.733,1.166
		c-0.195,0.438-0.341,0.885-0.444,1.339l-1.466,6.955h-3.565l2.704-13.074H36.659z"/>
	<path fill="#FFFFFF" d="M54.432,125.194c-0.396-0.337-0.999-0.507-1.807-0.507c-0.677,0-1.25,0.183-1.721,0.545
		s-0.854,0.821-1.138,1.379c-0.289,0.556-0.495,1.162-0.62,1.81c-0.126,0.648-0.19,1.251-0.19,1.805c0,0.39,0.042,0.755,0.125,1.101
		c0.086,0.346,0.229,0.644,0.431,0.9c0.202,0.249,0.459,0.453,0.771,0.607c0.312,0.149,0.695,0.228,1.15,0.228
		c0.405,0,0.762-0.072,1.074-0.203c0.312-0.135,0.591-0.311,0.834-0.531c0.245-0.218,0.447-0.479,0.609-0.773
		c0.158-0.295,0.29-0.602,0.391-0.922h3.589c-0.538,1.636-1.37,2.894-2.49,3.782c-1.121,0.885-2.54,1.325-4.261,1.325
		c-1.835,0-3.267-0.447-4.284-1.352c-1.021-0.903-1.532-2.312-1.532-4.238c0-1.109,0.165-2.16,0.494-3.147
		c0.327-0.986,0.809-1.854,1.442-2.605c0.634-0.749,1.403-1.339,2.313-1.769c0.913-0.431,1.957-0.644,3.137-0.644
		c0.792,0,1.542,0.091,2.252,0.275c0.706,0.188,1.325,0.472,1.855,0.859c0.532,0.39,0.955,0.895,1.267,1.521
		c0.31,0.622,0.477,1.363,0.492,2.226h-3.59C55.026,126.089,54.828,125.535,54.432,125.194"/>
	<path fill="#FFFFFF" d="M59.114,126.977c0.344-0.985,0.842-1.851,1.491-2.595c0.648-0.739,1.438-1.325,2.365-1.755
		c0.927-0.431,1.971-0.644,3.134-0.644c0.894,0,1.715,0.113,2.465,0.341c0.753,0.228,1.396,0.568,1.938,1.025
		c0.538,0.453,0.957,1.027,1.251,1.719c0.293,0.691,0.443,1.508,0.443,2.451c0,1.146-0.174,2.224-0.519,3.225
		c-0.347,1.004-0.849,1.878-1.505,2.619c-0.658,0.74-1.455,1.323-2.389,1.743c-0.937,0.423-2.003,0.632-3.199,0.632
		c-1.821,0-3.277-0.466-4.364-1.402c-1.086-0.937-1.63-2.339-1.63-4.211C58.595,129.011,58.768,127.964,59.114,126.977
		 M62.35,131.237c0.11,0.358,0.275,0.668,0.491,0.939c0.222,0.268,0.49,0.484,0.812,0.643c0.319,0.159,0.691,0.24,1.112,0.24
		c0.675,0,1.253-0.182,1.733-0.542c0.481-0.363,0.877-0.819,1.187-1.364c0.312-0.55,0.545-1.145,0.697-1.784
		c0.15-0.643,0.227-1.24,0.227-1.798c0-0.874-0.199-1.577-0.596-2.099c-0.396-0.522-1.074-0.783-2.036-0.783
		c-0.658,0-1.226,0.181-1.706,0.543c-0.481,0.362-0.873,0.812-1.178,1.352c-0.302,0.541-0.53,1.129-0.68,1.76
		c-0.153,0.632-0.229,1.228-0.229,1.782C62.185,130.514,62.238,130.884,62.35,131.237"/>
	<path fill="#FFFFFF" d="M87.301,133.741c-0.406,0.711-0.959,1.221-1.66,1.532c-0.699,0.312-1.454,0.466-2.262,0.466
		c-1.585,0-2.812-0.457-3.681-1.376c-0.868-0.919-1.303-2.173-1.303-3.757c0-1.076,0.145-2.133,0.431-3.162
		c0.287-1.028,0.725-1.945,1.317-2.757c0.588-0.805,1.328-1.462,2.223-1.96c0.892-0.496,1.949-0.743,3.162-0.743
		c0.759,0,1.485,0.166,2.188,0.505c0.701,0.337,1.195,0.868,1.48,1.591h0.049l1.443-6.723h3.592l-3.817,18.055h-3.469l0.356-1.618
		L87.301,133.741z M84.149,125.217c-0.495,0.358-0.905,0.805-1.225,1.345c-0.323,0.541-0.558,1.129-0.708,1.771
		c-0.152,0.638-0.231,1.246-0.231,1.816c0,0.39,0.06,0.762,0.168,1.114c0.11,0.355,0.268,0.663,0.479,0.922
		c0.214,0.263,0.474,0.476,0.797,0.634c0.32,0.159,0.69,0.242,1.116,0.242c0.67,0,1.254-0.184,1.743-0.542
		c0.49-0.365,0.9-0.823,1.225-1.383c0.333-0.555,0.574-1.157,0.738-1.808c0.157-0.648,0.235-1.253,0.235-1.809
		c0-0.856-0.206-1.546-0.631-2.057c-0.42-0.518-1.067-0.776-1.947-0.776C85.236,124.687,84.647,124.865,84.149,125.217"/>
	<path fill="#FFFFFF" d="M96.348,129.972v0.204v0.328c0,0.761,0.239,1.376,0.711,1.849c0.471,0.472,1.194,0.706,2.174,0.706
		c0.353,0,0.671-0.053,0.946-0.163c0.281-0.108,0.523-0.25,0.734-0.418c0.211-0.169,0.399-0.365,0.559-0.581
		c0.157-0.218,0.305-0.43,0.443-0.632h3.589c-0.285,0.74-0.624,1.391-1.013,1.945c-0.385,0.555-0.847,1.024-1.389,1.404
		c-0.538,0.38-1.168,0.66-1.886,0.846c-0.716,0.187-1.546,0.278-2.487,0.278c-0.878,0-1.675-0.116-2.393-0.353
		c-0.715-0.235-1.328-0.596-1.832-1.073c-0.506-0.48-0.899-1.078-1.178-1.785c-0.277-0.707-0.418-1.534-0.418-2.478
		c0-1.044,0.169-2.053,0.506-3.022c0.34-0.971,0.812-1.829,1.432-2.581c0.614-0.749,1.367-1.347,2.261-1.793
		c0.893-0.447,1.896-0.67,3.01-0.67c0.91,0,1.743,0.117,2.49,0.354c0.75,0.237,1.393,0.594,1.923,1.072
		c0.531,0.483,0.943,1.081,1.239,1.799c0.295,0.716,0.445,1.546,0.445,2.489c0,0.639-0.072,1.325-0.204,2.048h-9.637
		C96.355,129.83,96.348,129.905,96.348,129.972 M102.659,126.471c-0.059-0.329-0.172-0.627-0.341-0.898
		c-0.17-0.269-0.413-0.484-0.733-0.644c-0.322-0.158-0.742-0.24-1.263-0.24c-0.506,0-0.955,0.077-1.342,0.227
		c-0.389,0.153-0.726,0.354-1.013,0.607c-0.286,0.254-0.525,0.547-0.718,0.886c-0.194,0.336-0.361,0.69-0.495,1.063h5.994
		C102.748,127.133,102.719,126.8,102.659,126.471"/>
	<path fill="#FFFFFF" d="M122.22,117.357c2.548,0,4.459,0.61,5.741,1.829c1.281,1.223,1.923,2.958,1.923,5.199
		c0,1.566-0.22,3.027-0.657,4.377c-0.441,1.347-1.092,2.516-1.963,3.5c-0.868,0.983-1.954,1.76-3.262,2.314
		c-1.306,0.557-2.827,0.835-4.562,0.835h-7.539l3.794-18.055H122.22z M119.614,132.073c1.013,0,1.912-0.185,2.695-0.555
		c0.781-0.373,1.443-0.879,1.973-1.518c0.532-0.644,0.934-1.384,1.213-2.226c0.277-0.845,0.417-1.745,0.417-2.706
		c0-0.658-0.071-1.254-0.216-1.784c-0.143-0.53-0.373-0.991-0.694-1.378c-0.322-0.386-0.729-0.687-1.227-0.897
		c-0.496-0.211-1.098-0.317-1.809-0.317h-2.985l-2.429,11.381H119.614z"/>
	<path fill="#FFFFFF" d="M133.6,129.972v0.204v0.328c0,0.761,0.239,1.376,0.71,1.849c0.472,0.472,1.194,0.706,2.173,0.706
		c0.354,0,0.672-0.053,0.947-0.163c0.28-0.108,0.524-0.25,0.735-0.418c0.211-0.169,0.398-0.365,0.559-0.581
		c0.156-0.218,0.304-0.43,0.442-0.632h3.59c-0.286,0.74-0.625,1.391-1.013,1.945c-0.386,0.555-0.848,1.024-1.39,1.404
		c-0.539,0.38-1.167,0.66-1.885,0.846c-0.716,0.187-1.546,0.278-2.488,0.278c-0.878,0-1.674-0.116-2.393-0.353
		c-0.714-0.235-1.327-0.596-1.831-1.073c-0.507-0.48-0.899-1.078-1.178-1.785c-0.278-0.707-0.418-1.534-0.418-2.478
		c0-1.044,0.169-2.053,0.506-3.022c0.339-0.971,0.812-1.829,1.431-2.581c0.615-0.749,1.366-1.347,2.262-1.793
		c0.892-0.447,1.896-0.67,3.009-0.67c0.909,0,1.743,0.117,2.49,0.354c0.75,0.237,1.392,0.594,1.923,1.072
		c0.53,0.483,0.943,1.081,1.239,1.799c0.295,0.716,0.445,1.546,0.445,2.489c0,0.639-0.073,1.325-0.204,2.048h-9.638
		C133.606,129.83,133.6,129.905,133.6,129.972 M139.911,126.471c-0.059-0.329-0.172-0.627-0.341-0.898
		c-0.171-0.269-0.414-0.484-0.733-0.644c-0.322-0.158-0.743-0.24-1.264-0.24c-0.506,0-0.954,0.077-1.343,0.227
		c-0.388,0.153-0.725,0.354-1.012,0.607c-0.285,0.254-0.526,0.547-0.718,0.886c-0.194,0.336-0.361,0.69-0.494,1.063H140
		C140,127.133,139.97,126.8,139.911,126.471"/>
	<path fill="#FFFFFF" d="M151.948,124.853c-0.314-0.31-0.823-0.471-1.532-0.471c-0.639,0-1.167,0.101-1.581,0.292
		c-0.414,0.197-0.62,0.528-0.62,1.002c0,0.286,0.122,0.53,0.369,0.732c0.244,0.202,0.668,0.396,1.276,0.581l1.794,0.583
		c0.49,0.149,0.941,0.329,1.354,0.53c0.415,0.202,0.775,0.45,1.088,0.745c0.312,0.295,0.555,0.648,0.732,1.051
		c0.178,0.404,0.267,0.877,0.267,1.415c0,0.812-0.184,1.498-0.543,2.062c-0.364,0.563-0.841,1.022-1.43,1.378
		c-0.59,0.353-1.257,0.607-1.999,0.759c-0.741,0.151-1.49,0.226-2.25,0.226c-0.642,0-1.291-0.065-1.947-0.202
		c-0.657-0.132-1.254-0.358-1.785-0.67c-0.53-0.31-0.964-0.725-1.301-1.238c-0.339-0.514-0.505-1.16-0.505-1.933v-0.531h3.312v0.427
		c0,0.306,0.074,0.57,0.23,0.785c0.15,0.219,0.347,0.399,0.591,0.543c0.243,0.145,0.525,0.255,0.835,0.329
		c0.312,0.077,0.619,0.115,0.924,0.115c0.267,0,0.538-0.025,0.808-0.074c0.271-0.053,0.514-0.142,0.735-0.269
		c0.217-0.125,0.397-0.286,0.532-0.48c0.132-0.191,0.202-0.442,0.202-0.745c0-0.455-0.118-0.777-0.354-0.96
		c-0.236-0.185-0.549-0.348-0.937-0.482l-2.756-0.884c-0.456-0.153-0.857-0.313-1.2-0.482c-0.347-0.168-0.645-0.379-0.889-0.629
		c-0.245-0.255-0.43-0.56-0.554-0.912c-0.126-0.355-0.192-0.793-0.192-1.315c0-0.776,0.184-1.425,0.542-1.949
		c0.364-0.52,0.835-0.946,1.407-1.277c0.573-0.327,1.199-0.562,1.886-0.707c0.68-0.142,1.335-0.213,1.957-0.213
		c0.708,0,1.392,0.06,2.051,0.175c0.657,0.118,1.233,0.334,1.731,0.644c0.496,0.314,0.89,0.739,1.175,1.277
		c0.287,0.542,0.423,1.234,0.406,2.074h-3.34C152.425,125.596,152.26,125.165,151.948,124.853"/>
	<path fill="#FFFFFF" d="M158.005,124.245c0.39-0.547,0.861-0.991,1.417-1.326c0.556-0.337,1.18-0.577,1.871-0.722
		c0.691-0.142,1.409-0.213,2.148-0.213c0.592,0,1.206,0.04,1.849,0.124c0.641,0.085,1.229,0.253,1.771,0.493
		c0.537,0.244,0.979,0.591,1.324,1.037c0.348,0.446,0.512,1.042,0.495,1.781c0,0.625-0.094,1.361-0.278,2.201l-1.163,5.261
		c-0.068,0.238-0.116,0.528-0.14,0.874c-0.025,0.343-0.039,0.644-0.039,0.898c0,0.221,0.042,0.47,0.127,0.758h-3.589v-1.292
		c-0.491,0.558-1.09,0.968-1.798,1.229c-0.708,0.26-1.44,0.39-2.2,0.39c-0.708,0-1.328-0.092-1.858-0.278
		c-0.53-0.186-0.974-0.433-1.328-0.747c-0.354-0.31-0.617-0.672-0.784-1.087c-0.168-0.408-0.251-0.846-0.251-1.3
		c0-1.266,0.43-2.276,1.3-3.037c0.868-0.757,2.095-1.229,3.681-1.416c0.841-0.097,1.576-0.173,2.2-0.229
		c0.621-0.048,1.141-0.127,1.554-0.238c0.415-0.107,0.72-0.268,0.922-0.482c0.204-0.208,0.305-0.525,0.305-0.947
		c0-0.335-0.076-0.605-0.226-0.807c-0.152-0.204-0.342-0.365-0.568-0.481c-0.23-0.116-0.474-0.196-0.735-0.242
		c-0.261-0.04-0.512-0.064-0.744-0.064c-0.643,0-1.215,0.161-1.722,0.471c-0.507,0.312-0.818,0.797-0.937,1.455h-3.363
		C157.364,125.48,157.616,124.795,158.005,124.245 M163.365,129.631c-0.521,0.06-1.045,0.107-1.565,0.139
		c-0.339,0.034-0.666,0.089-0.988,0.168c-0.319,0.076-0.603,0.188-0.846,0.338c-0.246,0.151-0.442,0.358-0.591,0.62
		c-0.156,0.262-0.232,0.596-0.232,1.001c0,0.49,0.201,0.854,0.596,1.1c0.396,0.245,0.855,0.367,1.379,0.367
		c0.556,0,1.025-0.089,1.401-0.266c0.381-0.179,0.703-0.404,0.964-0.683s0.467-0.595,0.616-0.95
		c0.155-0.354,0.281-0.706,0.383-1.063l0.353-1.264C164.379,129.41,163.89,129.573,163.365,129.631"/>
	<path fill="#FFFFFF" d="M175.065,122.337l-0.532,2.35l0.052,0.051c0.406-0.908,1.017-1.597,1.833-2.06
		c0.818-0.465,1.708-0.696,2.669-0.696c0.371,0,0.742,0.025,1.112,0.076l-0.734,3.491c-0.251-0.051-0.505-0.101-0.756-0.151
		c-0.253-0.051-0.507-0.077-0.76-0.077c-0.691,0-1.275,0.117-1.759,0.354c-0.479,0.237-0.884,0.557-1.212,0.962
		c-0.332,0.406-0.59,0.862-0.787,1.376c-0.19,0.514-0.348,1.053-0.465,1.606l-1.216,5.793h-3.565l2.708-13.074H175.065z"/>
	<path fill="#FFFFFF" d="M184.05,122.337l-0.531,2.35l0.052,0.051c0.406-0.908,1.017-1.597,1.832-2.06
		c0.818-0.465,1.709-0.696,2.67-0.696c0.371,0,0.742,0.025,1.11,0.076l-0.732,3.491c-0.251-0.051-0.507-0.101-0.757-0.151
		c-0.253-0.051-0.507-0.077-0.761-0.077c-0.689,0-1.275,0.117-1.757,0.354c-0.479,0.237-0.884,0.557-1.213,0.962
		c-0.331,0.406-0.589,0.862-0.786,1.376c-0.191,0.514-0.349,1.053-0.465,1.606l-1.217,5.793h-3.564l2.707-13.074H184.05z"/>
	<path fill="#FFFFFF" d="M188.208,126.977c0.347-0.985,0.846-1.851,1.493-2.595c0.648-0.739,1.436-1.325,2.365-1.755
		c0.927-0.431,1.974-0.644,3.137-0.644c0.893,0,1.714,0.113,2.464,0.341c0.753,0.228,1.396,0.568,1.935,1.025
		c0.541,0.453,0.959,1.027,1.251,1.719c0.298,0.691,0.445,1.508,0.445,2.451c0,1.146-0.174,2.224-0.519,3.225
		c-0.344,1.004-0.847,1.878-1.507,2.619c-0.656,0.74-1.451,1.323-2.388,1.743c-0.937,0.423-2.003,0.632-3.202,0.632
		c-1.817,0-3.273-0.466-4.36-1.402c-1.086-0.937-1.632-2.339-1.632-4.211C187.69,129.011,187.862,127.964,188.208,126.977
		 M191.447,131.237c0.108,0.358,0.271,0.668,0.493,0.939c0.217,0.268,0.489,0.484,0.807,0.643c0.321,0.159,0.693,0.24,1.114,0.24
		c0.675,0,1.253-0.182,1.733-0.542c0.481-0.363,0.874-0.819,1.189-1.364c0.31-0.55,0.544-1.145,0.692-1.784
		c0.152-0.643,0.229-1.24,0.229-1.798c0-0.874-0.199-1.577-0.596-2.099c-0.395-0.522-1.074-0.783-2.034-0.783
		c-0.659,0-1.228,0.181-1.707,0.543s-0.873,0.812-1.178,1.352c-0.303,0.541-0.53,1.129-0.681,1.76
		c-0.152,0.632-0.229,1.228-0.229,1.782C191.281,130.514,191.339,130.884,191.447,131.237"/>
	<polygon fill="#FFFFFF" points="208.587,117.355 204.741,135.412 201.174,135.412 204.994,117.355 	"/>
	<polygon fill="#FFFFFF" points="214.235,117.355 210.391,135.412 206.823,135.412 210.644,117.355 	"/>
	<path fill="#FFFFFF" d="M213.438,126.977c0.346-0.985,0.846-1.851,1.491-2.595c0.649-0.739,1.436-1.325,2.366-1.755
		c0.927-0.431,1.974-0.644,3.137-0.644c0.893,0,1.714,0.113,2.464,0.341c0.753,0.228,1.396,0.568,1.936,1.025
		c0.54,0.453,0.957,1.027,1.25,1.719c0.298,0.691,0.445,1.508,0.445,2.451c0,1.146-0.175,2.224-0.519,3.225
		c-0.344,1.004-0.847,1.878-1.507,2.619c-0.657,0.74-1.45,1.323-2.387,1.743c-0.938,0.423-2.005,0.632-3.202,0.632
		c-1.818,0-3.274-0.466-4.361-1.402c-1.086-0.937-1.632-2.339-1.632-4.211C212.919,129.011,213.091,127.964,213.438,126.977
		 M216.674,131.237c0.11,0.358,0.277,0.668,0.495,0.939c0.216,0.268,0.49,0.484,0.808,0.643c0.32,0.159,0.691,0.24,1.113,0.24
		c0.676,0,1.253-0.182,1.732-0.542c0.483-0.363,0.877-0.819,1.19-1.364c0.31-0.55,0.543-1.145,0.692-1.784
		c0.152-0.643,0.229-1.24,0.229-1.798c0-0.874-0.199-1.577-0.596-2.099c-0.396-0.522-1.074-0.783-2.035-0.783
		c-0.659,0-1.228,0.181-1.706,0.543s-0.873,0.812-1.178,1.352c-0.303,0.541-0.53,1.129-0.681,1.76
		c-0.152,0.632-0.229,1.228-0.229,1.782C216.51,130.514,216.566,130.884,216.674,131.237"/>
	<polygon fill="#FFFFFF" points="249.945,117.355 249.261,120.692 239.45,120.692 238.64,124.56 247.72,124.56 247.062,127.648 
		237.981,127.648 237.045,132.073 247.013,132.073 246.302,135.412 232.394,135.412 236.162,117.355 	"/>
	<path fill="#FFFFFF" d="M257.56,125.194c-0.396-0.337-0.998-0.507-1.808-0.507c-0.676,0-1.249,0.183-1.721,0.545
		c-0.469,0.362-0.851,0.821-1.138,1.379c-0.286,0.556-0.494,1.162-0.62,1.81c-0.126,0.648-0.189,1.251-0.189,1.805
		c0,0.39,0.042,0.755,0.128,1.101c0.084,0.346,0.229,0.644,0.431,0.9c0.202,0.249,0.46,0.453,0.77,0.607
		c0.312,0.149,0.697,0.228,1.15,0.228c0.405,0,0.764-0.072,1.074-0.203c0.312-0.135,0.593-0.311,0.835-0.531
		c0.244-0.218,0.448-0.479,0.607-0.773c0.16-0.295,0.293-0.602,0.395-0.922h3.589c-0.541,1.636-1.369,2.894-2.491,3.782
		c-1.119,0.885-2.54,1.325-4.26,1.325c-1.84,0-3.268-0.447-4.287-1.352c-1.021-0.903-1.532-2.312-1.532-4.238
		c0-1.109,0.167-2.16,0.493-3.147c0.331-0.986,0.812-1.854,1.444-2.605c0.632-0.749,1.401-1.339,2.313-1.769
		c0.909-0.431,1.957-0.644,3.135-0.644c0.791,0,1.544,0.091,2.251,0.275c0.709,0.188,1.326,0.472,1.856,0.859
		c0.533,0.39,0.955,0.895,1.267,1.521c0.312,0.622,0.477,1.363,0.493,2.226h-3.591C258.154,126.089,257.957,125.535,257.56,125.194"
		/>
	<path fill="#FFFFFF" d="M262.241,126.977c0.347-0.985,0.847-1.851,1.493-2.595c0.649-0.739,1.436-1.325,2.365-1.755
		c0.927-0.431,1.974-0.644,3.138-0.644c0.892,0,1.712,0.113,2.463,0.341c0.752,0.228,1.396,0.568,1.935,1.025
		c0.541,0.453,0.958,1.027,1.252,1.719c0.297,0.691,0.445,1.508,0.445,2.451c0,1.146-0.177,2.224-0.52,3.225
		c-0.345,1.004-0.846,1.878-1.508,2.619c-0.657,0.74-1.45,1.323-2.387,1.743c-0.938,0.423-2.003,0.632-3.201,0.632
		c-1.819,0-3.275-0.466-4.361-1.402s-1.633-2.339-1.633-4.211C261.723,129.011,261.896,127.964,262.241,126.977 M265.48,131.237
		c0.107,0.358,0.274,0.668,0.493,0.939c0.216,0.268,0.489,0.484,0.807,0.643c0.322,0.159,0.692,0.24,1.114,0.24
		c0.676,0,1.254-0.182,1.733-0.542c0.481-0.363,0.875-0.819,1.189-1.364c0.31-0.55,0.543-1.145,0.693-1.784
		c0.152-0.643,0.229-1.24,0.229-1.798c0-0.874-0.198-1.577-0.596-2.099c-0.396-0.522-1.073-0.783-2.035-0.783
		c-0.659,0-1.228,0.181-1.707,0.543c-0.479,0.362-0.872,0.812-1.177,1.352c-0.302,0.541-0.531,1.129-0.682,1.76
		c-0.151,0.632-0.229,1.228-0.229,1.782C265.314,130.514,265.371,130.884,265.48,131.237"/>
	<path fill="#FFFFFF" d="M281.354,122.337l-0.405,1.819h0.049c1.163-1.45,2.69-2.175,4.582-2.175c2.541,0,3.817,1.174,3.817,3.517
		c0,0.135-0.018,0.308-0.05,0.519c-0.035,0.209-0.073,0.425-0.115,0.644c-0.044,0.219-0.087,0.426-0.128,0.622
		c-0.042,0.189-0.071,0.351-0.088,0.465l-1.618,7.664h-3.59l1.591-7.664c0.037-0.2,0.082-0.472,0.141-0.809
		c0.059-0.336,0.087-0.6,0.087-0.785c0-0.389-0.178-0.705-0.543-0.96c-0.363-0.25-0.757-0.379-1.174-0.379
		c-0.542,0-1.017,0.105-1.432,0.316c-0.412,0.212-0.765,0.485-1.062,0.82c-0.291,0.337-0.538,0.727-0.731,1.166
		c-0.194,0.438-0.343,0.885-0.443,1.339l-1.467,6.955h-3.566l2.708-13.074H281.354z"/>
	<path fill="#FFFFFF" d="M290.576,126.981c0.346-0.987,0.847-1.854,1.491-2.596c0.649-0.742,1.44-1.328,2.366-1.758
		c0.927-0.427,1.974-0.646,3.137-0.646c0.893,0,1.714,0.115,2.467,0.343c0.75,0.226,1.393,0.568,1.933,1.025
		c0.54,0.456,0.957,1.027,1.253,1.719s0.445,1.508,0.445,2.451c0,1.147-0.178,2.226-0.519,3.225
		c-0.347,1.004-0.85,1.878-1.508,2.619c-0.655,0.742-1.452,1.323-2.389,1.745c-0.936,0.421-2.001,0.632-3.201,0.632
		c-1.819,0-3.275-0.468-4.362-1.404c-1.086-0.937-1.632-2.339-1.632-4.211C290.058,129.011,290.232,127.962,290.576,126.981
		 M293.814,131.237c0.11,0.358,0.275,0.67,0.494,0.936c0.218,0.275,0.489,0.488,0.809,0.646c0.318,0.161,0.689,0.242,1.114,0.242
		c0.673,0,1.25-0.184,1.729-0.544c0.483-0.363,0.879-0.821,1.19-1.366c0.312-0.548,0.543-1.143,0.693-1.782
		c0.155-0.641,0.229-1.24,0.229-1.796c0-0.876-0.197-1.577-0.594-2.099c-0.398-0.524-1.074-0.787-2.038-0.787
		c-0.655,0-1.225,0.185-1.706,0.545c-0.479,0.362-0.872,0.816-1.176,1.354c-0.305,0.541-0.53,1.124-0.683,1.758
		c-0.152,0.632-0.229,1.228-0.229,1.782C293.649,130.514,293.705,130.884,293.814,131.237 M297.419,120.718l2.224-3.595h3.846
		l-3.54,3.595H297.419z"/>
	<path fill="#FFFFFF" d="M309.689,122.337l-0.405,1.844h0.05c0.54-0.76,1.201-1.313,1.974-1.667
		c0.775-0.355,1.646-0.532,2.606-0.532c0.808,0,1.499,0.177,2.073,0.532c0.573,0.354,0.934,0.935,1.087,1.743
		c0.217-0.337,0.5-0.644,0.836-0.922s0.696-0.519,1.085-0.718c0.39-0.204,0.8-0.36,1.229-0.47c0.428-0.111,0.854-0.166,1.277-0.166
		c0.504,0,0.999,0.066,1.479,0.201c0.478,0.137,0.905,0.338,1.277,0.609c0.369,0.27,0.665,0.614,0.884,1.037
		c0.222,0.421,0.327,0.908,0.327,1.465c0,0.406-0.042,0.813-0.125,1.229c-0.082,0.411-0.168,0.812-0.252,1.2l-1.621,7.688h-3.589
		l1.722-8.269c0.066-0.341,0.1-0.648,0.1-0.937c0-0.389-0.148-0.716-0.446-0.989c-0.293-0.268-0.668-0.402-1.124-0.402
		c-0.47,0-0.897,0.114-1.274,0.341c-0.382,0.229-0.708,0.514-0.986,0.861c-0.278,0.344-0.51,0.728-0.697,1.149
		c-0.187,0.423-0.321,0.836-0.402,1.239l-1.47,7.006h-3.613l1.717-8.269c0.066-0.341,0.1-0.648,0.1-0.937
		c0-0.389-0.144-0.716-0.44-0.989c-0.294-0.268-0.671-0.402-1.124-0.402c-0.474,0-0.898,0.114-1.277,0.341
		c-0.381,0.229-0.711,0.514-0.984,0.861c-0.282,0.344-0.512,0.728-0.697,1.149c-0.187,0.423-0.321,0.836-0.406,1.239l-1.468,7.006
		h-3.564l2.708-13.074H309.689z"/>
	<path fill="#FFFFFF" d="M331.799,122.337l-2.781,13.074h-3.593l2.759-13.074H331.799z M328.587,120.315l0.658-2.958h3.618
		l-0.658,2.958H328.587z"/>
	<path fill="#FFFFFF" d="M340.612,125.194c-0.397-0.337-0.998-0.507-1.807-0.507c-0.678,0-1.252,0.183-1.722,0.545
		c-0.471,0.362-0.851,0.821-1.139,1.379c-0.286,0.556-0.494,1.162-0.619,1.81c-0.124,0.648-0.189,1.251-0.189,1.805
		c0,0.39,0.04,0.755,0.127,1.101c0.084,0.346,0.23,0.644,0.432,0.9c0.202,0.249,0.459,0.453,0.77,0.607
		c0.312,0.149,0.695,0.228,1.149,0.228c0.406,0,0.767-0.072,1.073-0.203c0.312-0.135,0.596-0.311,0.838-0.531
		c0.242-0.218,0.447-0.479,0.607-0.773c0.159-0.295,0.293-0.602,0.394-0.922h3.587c-0.537,1.636-1.368,2.894-2.486,3.782
		c-1.124,0.885-2.545,1.325-4.265,1.325c-1.84,0-3.266-0.447-4.286-1.352c-1.02-0.903-1.531-2.312-1.531-4.238
		c0-1.109,0.165-2.16,0.492-3.147c0.331-0.986,0.812-1.854,1.445-2.605c0.632-0.749,1.402-1.339,2.314-1.769
		c0.908-0.431,1.954-0.644,3.134-0.644c0.789,0,1.543,0.091,2.252,0.275c0.708,0.188,1.324,0.472,1.855,0.859
		c0.533,0.39,0.955,0.895,1.268,1.521c0.312,0.622,0.475,1.363,0.493,2.226h-3.593C341.206,126.089,341.012,125.535,340.612,125.194
		"/>
	<path fill="#FFFFFF" d="M345.295,126.977c0.346-0.985,0.845-1.851,1.493-2.595c0.648-0.739,1.436-1.325,2.362-1.755
		c0.928-0.431,1.974-0.644,3.139-0.644c0.891,0,1.711,0.113,2.463,0.341c0.751,0.228,1.396,0.568,1.936,1.025
		c0.54,0.453,0.958,1.027,1.251,1.719c0.297,0.691,0.446,1.508,0.446,2.451c0,1.146-0.175,2.224-0.52,3.225
		c-0.345,1.004-0.847,1.878-1.507,2.619c-0.658,0.74-1.45,1.323-2.386,1.743c-0.939,0.423-2.006,0.632-3.204,0.632
		c-1.819,0-3.274-0.466-4.359-1.402c-1.088-0.937-1.633-2.339-1.633-4.211C344.776,129.011,344.949,127.964,345.295,126.977
		 M348.531,131.237c0.111,0.358,0.273,0.668,0.494,0.939c0.217,0.268,0.49,0.484,0.807,0.643c0.322,0.159,0.694,0.24,1.114,0.24
		c0.678,0,1.254-0.182,1.733-0.542c0.48-0.363,0.874-0.819,1.191-1.364c0.308-0.55,0.542-1.145,0.691-1.784
		c0.153-0.643,0.23-1.24,0.23-1.798c0-0.874-0.201-1.577-0.595-2.099c-0.399-0.522-1.076-0.783-2.036-0.783
		c-0.658,0-1.228,0.181-1.707,0.543c-0.479,0.362-0.873,0.812-1.179,1.352c-0.303,0.541-0.528,1.129-0.68,1.76
		c-0.151,0.632-0.229,1.228-0.229,1.782C348.367,130.514,348.424,130.884,348.531,131.237"/>
	<path fill="#FFFFFF" d="M368.8,138.61c-0.321,0.365-0.675,0.644-1.064,0.848c-0.386,0.202-0.827,0.344-1.324,0.415
		c-0.497,0.077-1.083,0.115-1.76,0.115c-0.303,0-0.615-0.015-0.935-0.05c-0.319-0.036-0.641-0.06-0.962-0.077l0.609-2.981
		c0.235,0,0.475,0.023,0.721,0.076c0.244,0.048,0.482,0.075,0.72,0.075c0.418,0,0.759-0.063,1.009-0.188
		c0.257-0.13,0.461-0.281,0.623-0.459c0.16-0.175,0.294-0.368,0.404-0.568c0.109-0.202,0.221-0.38,0.341-0.528l-2.326-12.95h3.692
		l1.138,9.358h0.05l4.526-9.358h3.793l-8.319,14.895C369.43,137.791,369.121,138.245,368.8,138.61"/>
	<path fill="#FFFFFF" d="M386.38,131.023c0.183,0.43,0.453,0.772,0.806,1.025c0.355,0.25,0.777,0.435,1.268,0.543
		c0.49,0.109,1.021,0.166,1.595,0.166c0.403,0,0.807-0.053,1.21-0.154c0.405-0.101,0.773-0.25,1.103-0.454
		c0.328-0.202,0.598-0.466,0.812-0.782c0.209-0.322,0.314-0.711,0.314-1.162c0-0.44-0.135-0.8-0.406-1.078s-0.619-0.519-1.049-0.721
		c-0.428-0.201-0.917-0.379-1.465-0.532c-0.55-0.149-1.104-0.31-1.659-0.48c-0.574-0.166-1.128-0.367-1.669-0.605
		c-0.537-0.235-1.022-0.539-1.454-0.907c-0.433-0.375-0.778-0.831-1.038-1.368c-0.259-0.541-0.391-1.196-0.391-1.975
		c0-1.013,0.212-1.869,0.631-2.578c0.421-0.708,0.971-1.287,1.646-1.733c0.674-0.446,1.436-0.772,2.288-0.984
		c0.849-0.213,1.716-0.316,2.592-0.316c0.928,0,1.8,0.104,2.617,0.316c0.818,0.212,1.534,0.553,2.148,1.022
		c0.615,0.472,1.105,1.073,1.468,1.809c0.365,0.732,0.545,1.625,0.545,2.669h-3.769c0.016-0.506-0.057-0.931-0.214-1.279
		c-0.164-0.344-0.39-0.628-0.683-0.845c-0.297-0.221-0.646-0.375-1.051-0.471c-0.404-0.089-0.833-0.134-1.287-0.134
		c-0.375,0-0.747,0.032-1.129,0.109c-0.379,0.078-0.72,0.202-1.023,0.382c-0.303,0.176-0.549,0.406-0.734,0.694
		c-0.188,0.286-0.278,0.642-0.278,1.061c0,0.442,0.165,0.805,0.495,1.103c0.326,0.293,0.725,0.538,1.188,0.731
		c0.465,0.195,0.939,0.347,1.429,0.457c0.49,0.105,0.889,0.197,1.187,0.265c0.711,0.188,1.361,0.4,1.95,0.648
		c0.59,0.242,1.099,0.559,1.531,0.947c0.427,0.387,0.761,0.857,0.996,1.415c0.237,0.554,0.353,1.239,0.353,2.045
		c0,1.081-0.221,2-0.667,2.761c-0.446,0.757-1.021,1.374-1.72,1.844c-0.701,0.472-1.488,0.816-2.366,1.023
		c-0.874,0.212-1.743,0.317-2.603,0.317c-2.531,0-4.413-0.514-5.652-1.542s-1.858-2.646-1.858-4.857h3.771
		C386.117,130.058,386.194,130.591,386.38,131.023"/>
	<path fill="#FFFFFF" d="M398.696,126.977c0.345-0.985,0.845-1.851,1.49-2.595c0.65-0.739,1.436-1.325,2.365-1.755
		c0.927-0.431,1.974-0.644,3.138-0.644c0.891,0,1.713,0.113,2.463,0.341c0.753,0.228,1.396,0.568,1.934,1.025
		c0.543,0.453,0.96,1.027,1.253,1.719c0.298,0.691,0.444,1.508,0.444,2.451c0,1.146-0.175,2.224-0.519,3.225
		c-0.343,1.004-0.846,1.878-1.505,2.619c-0.658,0.74-1.45,1.323-2.389,1.743c-0.937,0.423-2.006,0.632-3.201,0.632
		c-1.819,0-3.274-0.466-4.36-1.402c-1.09-0.937-1.632-2.339-1.632-4.211C398.178,129.011,398.348,127.964,398.696,126.977
		 M401.932,131.237c0.109,0.358,0.277,0.668,0.495,0.939c0.217,0.268,0.49,0.484,0.808,0.643c0.32,0.159,0.69,0.24,1.113,0.24
		c0.674,0,1.253-0.182,1.733-0.542c0.479-0.363,0.873-0.819,1.188-1.364c0.31-0.55,0.545-1.145,0.693-1.784
		c0.153-0.643,0.229-1.24,0.229-1.798c0-0.874-0.199-1.577-0.593-2.099c-0.398-0.522-1.076-0.783-2.036-0.783
		c-0.66,0-1.229,0.181-1.707,0.543c-0.48,0.362-0.871,0.812-1.179,1.352c-0.303,0.541-0.53,1.129-0.682,1.76
		c-0.151,0.632-0.226,1.228-0.226,1.782C401.77,130.514,401.824,130.884,401.932,131.237"/>
	<path fill="#FFFFFF" d="M421.314,125.194c-0.396-0.337-0.996-0.507-1.808-0.507c-0.674,0-1.248,0.183-1.719,0.545
		s-0.85,0.821-1.139,1.379c-0.285,0.556-0.494,1.162-0.619,1.81c-0.124,0.648-0.192,1.251-0.192,1.805
		c0,0.39,0.044,0.755,0.13,1.101c0.082,0.346,0.228,0.644,0.43,0.9c0.202,0.249,0.459,0.453,0.771,0.607
		c0.312,0.149,0.696,0.228,1.151,0.228c0.405,0,0.765-0.072,1.073-0.203c0.312-0.135,0.592-0.311,0.834-0.531
		c0.246-0.218,0.45-0.479,0.61-0.773c0.158-0.295,0.293-0.602,0.394-0.922h3.587c-0.539,1.636-1.368,2.894-2.49,3.782
		c-1.12,0.885-2.541,1.325-4.261,1.325c-1.84,0-3.265-0.447-4.288-1.352c-1.019-0.903-1.532-2.312-1.532-4.238
		c0-1.109,0.169-2.16,0.495-3.147c0.332-0.986,0.812-1.854,1.445-2.605c0.63-0.749,1.4-1.339,2.312-1.769
		c0.91-0.431,1.958-0.644,3.133-0.644c0.793,0,1.547,0.091,2.254,0.275c0.71,0.188,1.324,0.472,1.857,0.859
		c0.532,0.39,0.953,0.895,1.265,1.521c0.313,0.622,0.479,1.363,0.495,2.226h-3.592C421.91,126.089,421.713,125.535,421.314,125.194"
		/>
	<path fill="#FFFFFF" d="M431.305,122.337l-2.782,13.074h-3.592l2.758-13.074H431.305z M428.093,120.315l0.657-2.958h3.616
		l-0.655,2.958H428.093z"/>
	<path fill="#FFFFFF" d="M433.086,124.245c0.39-0.547,0.863-0.991,1.417-1.326c0.558-0.337,1.181-0.577,1.873-0.722
		c0.69-0.142,1.406-0.213,2.149-0.213c0.587,0,1.202,0.04,1.848,0.124c0.639,0.085,1.229,0.253,1.77,0.493
		c0.538,0.244,0.979,0.591,1.325,1.037s0.512,1.042,0.496,1.781c0,0.625-0.094,1.361-0.279,2.201l-1.164,5.261
		c-0.066,0.238-0.113,0.528-0.137,0.874c-0.027,0.343-0.041,0.644-0.041,0.898c0,0.221,0.041,0.47,0.127,0.758h-3.586v-1.292
		c-0.495,0.558-1.091,0.968-1.802,1.229c-0.705,0.26-1.439,0.39-2.199,0.39c-0.705,0-1.324-0.092-1.857-0.278
		c-0.53-0.186-0.975-0.433-1.328-0.747c-0.354-0.31-0.616-0.672-0.785-1.087c-0.166-0.408-0.25-0.846-0.25-1.3
		c0-1.266,0.431-2.276,1.302-3.037c0.866-0.757,2.094-1.229,3.679-1.416c0.842-0.097,1.576-0.173,2.201-0.229
		c0.622-0.048,1.14-0.127,1.554-0.238c0.417-0.107,0.72-0.268,0.922-0.482c0.206-0.208,0.308-0.525,0.308-0.947
		c0-0.335-0.077-0.605-0.229-0.807c-0.151-0.204-0.342-0.365-0.569-0.481c-0.23-0.116-0.473-0.196-0.734-0.242
		c-0.26-0.04-0.509-0.064-0.745-0.064c-0.641,0-1.215,0.161-1.718,0.471c-0.51,0.312-0.821,0.797-0.939,1.455h-3.363
		C432.448,125.48,432.697,124.795,433.086,124.245 M438.447,129.631c-0.521,0.06-1.044,0.107-1.564,0.139
		c-0.339,0.034-0.668,0.089-0.989,0.168c-0.319,0.076-0.604,0.188-0.846,0.338c-0.247,0.151-0.444,0.358-0.594,0.62
		c-0.153,0.262-0.229,0.596-0.229,1.001c0,0.49,0.202,0.854,0.596,1.1s0.854,0.367,1.377,0.367c0.558,0,1.025-0.089,1.402-0.266
		c0.38-0.179,0.702-0.404,0.964-0.683c0.261-0.278,0.468-0.595,0.616-0.95c0.154-0.354,0.281-0.706,0.382-1.063l0.354-1.264
		C439.461,129.41,438.972,129.573,438.447,129.631"/>
	<polygon fill="#FFFFFF" points="451.44,117.355 447.592,135.412 444.026,135.412 447.848,117.355 	"/>
	<path fill="#FFFFFF" d="M464.817,133.741c-0.404,0.711-0.957,1.221-1.656,1.532c-0.701,0.312-1.455,0.466-2.262,0.466
		c-1.584,0-2.814-0.457-3.682-1.376c-0.871-0.919-1.303-2.173-1.303-3.757c0-1.076,0.145-2.133,0.428-3.162
		c0.287-1.028,0.73-1.945,1.32-2.757c0.588-0.805,1.33-1.462,2.223-1.96c0.895-0.496,1.947-0.743,3.162-0.743
		c0.756,0,1.486,0.166,2.188,0.505c0.699,0.337,1.193,0.868,1.479,1.591h0.049l1.445-6.723h3.592l-3.82,18.055h-3.465l0.354-1.618
		L464.817,133.741z M461.667,125.217c-0.494,0.358-0.908,0.805-1.225,1.345c-0.32,0.541-0.557,1.129-0.711,1.771
		c-0.15,0.638-0.225,1.246-0.225,1.816c0,0.39,0.055,0.762,0.164,1.114c0.109,0.355,0.268,0.663,0.48,0.922
		c0.213,0.263,0.475,0.476,0.795,0.634c0.322,0.159,0.693,0.242,1.115,0.242c0.674,0,1.252-0.184,1.742-0.542
		c0.49-0.365,0.9-0.823,1.23-1.383c0.326-0.555,0.57-1.157,0.734-1.808c0.158-0.648,0.238-1.253,0.238-1.809
		c0-0.856-0.211-1.546-0.633-2.057c-0.422-0.518-1.07-0.776-1.949-0.776C462.752,124.687,462.167,124.865,461.667,125.217"/>
	<path fill="#FFFFFF" d="M473.866,129.972v0.204v0.328c0,0.761,0.238,1.376,0.709,1.849c0.475,0.472,1.195,0.706,2.176,0.706
		c0.354,0,0.672-0.053,0.945-0.163c0.279-0.108,0.523-0.25,0.734-0.418c0.211-0.169,0.398-0.365,0.561-0.581
		c0.154-0.218,0.305-0.43,0.441-0.632h3.588c-0.283,0.74-0.623,1.391-1.014,1.945c-0.383,0.555-0.846,1.024-1.387,1.404
		c-0.537,0.38-1.166,0.66-1.887,0.846c-0.715,0.187-1.547,0.278-2.488,0.278c-0.877,0-1.676-0.116-2.391-0.353
		c-0.715-0.235-1.33-0.596-1.832-1.073c-0.506-0.48-0.9-1.078-1.178-1.785c-0.279-0.707-0.42-1.534-0.42-2.478
		c0-1.044,0.172-2.053,0.508-3.022c0.338-0.971,0.812-1.829,1.432-2.581c0.613-0.749,1.365-1.347,2.26-1.793
		c0.895-0.447,1.895-0.67,3.01-0.67c0.912,0,1.742,0.117,2.492,0.354c0.748,0.237,1.393,0.594,1.92,1.072
		c0.533,0.483,0.947,1.081,1.242,1.799c0.295,0.716,0.443,1.546,0.443,2.489c0,0.639-0.072,1.325-0.203,2.048h-9.639
		C473.874,129.83,473.866,129.905,473.866,129.972 M480.178,126.471c-0.061-0.329-0.174-0.627-0.344-0.898
		c-0.17-0.269-0.412-0.484-0.732-0.644c-0.32-0.158-0.744-0.24-1.264-0.24c-0.508,0-0.955,0.077-1.344,0.227
		c-0.389,0.153-0.725,0.354-1.014,0.607c-0.283,0.254-0.521,0.547-0.715,0.886c-0.197,0.336-0.363,0.69-0.494,1.063h5.992
		C480.264,127.133,480.237,126.8,480.178,126.471"/>
	<polygon fill="#FFFFFF" points="493.393,135.412 491.317,117.357 495.29,117.357 496.479,130.911 496.528,130.911 503.381,117.357 
		507.504,117.357 497.868,135.412 	"/>
	<path fill="#FFFFFF" d="M507.37,129.972v0.204v0.328c0,0.761,0.238,1.376,0.711,1.849c0.471,0.472,1.195,0.706,2.174,0.706
		c0.354,0,0.67-0.053,0.945-0.163c0.281-0.108,0.523-0.25,0.736-0.418c0.213-0.169,0.396-0.365,0.559-0.581
		c0.154-0.218,0.303-0.43,0.441-0.632h3.59c-0.285,0.74-0.625,1.391-1.014,1.945c-0.387,0.555-0.848,1.024-1.391,1.404
		c-0.537,0.38-1.166,0.66-1.885,0.846c-0.715,0.187-1.545,0.278-2.486,0.278c-0.877,0-1.674-0.116-2.395-0.353
		c-0.715-0.235-1.324-0.596-1.83-1.073c-0.508-0.48-0.898-1.078-1.178-1.785c-0.277-0.707-0.418-1.534-0.418-2.478
		c0-1.044,0.17-2.053,0.508-3.022c0.34-0.971,0.811-1.829,1.43-2.581c0.615-0.749,1.369-1.347,2.262-1.793
		c0.893-0.447,1.896-0.67,3.01-0.67c0.908,0,1.744,0.117,2.49,0.354c0.75,0.237,1.391,0.594,1.924,1.072
		c0.527,0.483,0.943,1.081,1.238,1.799c0.293,0.716,0.445,1.546,0.445,2.489c0,0.639-0.07,1.325-0.205,2.048h-9.637
		C507.375,129.83,507.37,129.905,507.37,129.972 M513.68,126.471c-0.059-0.329-0.172-0.627-0.34-0.898
		c-0.168-0.269-0.414-0.484-0.732-0.644c-0.324-0.158-0.744-0.24-1.266-0.24c-0.506,0-0.953,0.077-1.34,0.227
		c-0.389,0.153-0.727,0.354-1.014,0.607c-0.287,0.254-0.527,0.547-0.721,0.886c-0.191,0.336-0.359,0.69-0.494,1.063h5.996
		C513.77,127.133,513.741,126.8,513.68,126.471"/>
	<path fill="#FFFFFF" d="M523.155,122.337l-0.404,1.819h0.049c1.162-1.45,2.689-2.175,4.58-2.175c2.545,0,3.818,1.174,3.818,3.517
		c0,0.135-0.02,0.308-0.049,0.519c-0.035,0.209-0.076,0.425-0.117,0.644c-0.045,0.219-0.084,0.426-0.127,0.622
		c-0.043,0.189-0.072,0.351-0.09,0.465l-1.617,7.664h-3.59l1.592-7.664c0.035-0.2,0.08-0.472,0.139-0.809
		c0.061-0.336,0.09-0.6,0.09-0.785c0-0.389-0.18-0.705-0.543-0.96c-0.365-0.25-0.754-0.379-1.176-0.379
		c-0.541,0-1.014,0.105-1.432,0.316c-0.412,0.212-0.764,0.485-1.061,0.82c-0.293,0.337-0.537,0.727-0.734,1.166
		c-0.193,0.438-0.342,0.885-0.443,1.339l-1.467,6.955h-3.564l2.707-13.074H523.155z"/>
	<path fill="#FFFFFF" d="M535.297,129.972v0.204v0.328c0,0.761,0.238,1.376,0.711,1.849c0.471,0.472,1.195,0.706,2.174,0.706
		c0.352,0,0.668-0.053,0.947-0.163c0.279-0.108,0.523-0.25,0.736-0.418c0.211-0.169,0.398-0.365,0.555-0.581
		c0.16-0.218,0.307-0.43,0.443-0.632h3.592c-0.289,0.74-0.627,1.391-1.014,1.945c-0.389,0.555-0.85,1.024-1.391,1.404
		c-0.539,0.38-1.168,0.66-1.885,0.846c-0.715,0.187-1.545,0.278-2.488,0.278c-0.877,0-1.674-0.116-2.393-0.353
		c-0.715-0.235-1.328-0.596-1.832-1.073c-0.506-0.48-0.9-1.078-1.176-1.785c-0.279-0.707-0.418-1.534-0.418-2.478
		c0-1.044,0.168-2.053,0.504-3.022c0.34-0.971,0.812-1.829,1.432-2.581c0.613-0.749,1.367-1.347,2.262-1.793
		c0.893-0.447,1.896-0.67,3.01-0.67c0.908,0,1.744,0.117,2.49,0.354c0.752,0.237,1.391,0.594,1.924,1.072
		c0.529,0.483,0.943,1.081,1.238,1.799c0.295,0.716,0.443,1.546,0.443,2.489c0,0.639-0.068,1.325-0.203,2.048h-9.637
		C535.305,129.83,535.297,129.905,535.297,129.972 M541.608,126.471c-0.059-0.329-0.17-0.627-0.342-0.898
		c-0.168-0.269-0.412-0.484-0.732-0.644c-0.32-0.158-0.742-0.24-1.264-0.24c-0.506,0-0.951,0.077-1.342,0.227
		c-0.387,0.153-0.725,0.354-1.012,0.607c-0.287,0.254-0.529,0.547-0.721,0.886c-0.191,0.336-0.359,0.69-0.492,1.063h5.996
		C541.7,127.133,541.668,126.8,541.608,126.471"/>
	<polygon fill="#FFFFFF" points="552.647,125.044 546.346,125.044 546.93,122.337 557.907,122.337 557.348,124.992 549.127,132.705 
		556.34,132.705 555.756,135.412 543.922,135.412 544.477,132.757 	"/>
	<path fill="#FFFFFF" d="M565.34,135.412l0.406-1.819h-0.053c-1.162,1.431-2.689,2.148-4.576,2.148c-2.545,0-3.818-1.164-3.818-3.49
		c0-0.138,0.01-0.306,0.037-0.519c0.023-0.21,0.059-0.425,0.1-0.646c0.041-0.216,0.084-0.423,0.129-0.619
		c0.041-0.192,0.082-0.351,0.113-0.466l1.619-7.663h3.59L561.295,130c-0.037,0.101-0.066,0.221-0.092,0.365
		c-0.023,0.144-0.051,0.293-0.074,0.441c-0.025,0.154-0.041,0.302-0.051,0.443c-0.01,0.147-0.01,0.261-0.01,0.345
		c0,0.388,0.178,0.705,0.543,0.96c0.361,0.249,0.754,0.375,1.174,0.375c0.541,0,1.016-0.102,1.43-0.312
		c0.414-0.212,0.768-0.485,1.061-0.822c0.295-0.337,0.543-0.725,0.734-1.164c0.197-0.438,0.344-0.886,0.443-1.339l1.467-6.955h3.59
		l-2.729,13.074H565.34z"/>
	<path fill="#FFFFFF" d="M574.817,129.972v0.204v0.328c0,0.761,0.238,1.376,0.711,1.849c0.471,0.472,1.193,0.706,2.17,0.706
		c0.355,0,0.672-0.053,0.949-0.163c0.281-0.108,0.523-0.25,0.734-0.418c0.211-0.169,0.398-0.365,0.559-0.581
		c0.156-0.218,0.303-0.43,0.443-0.632h3.588c-0.285,0.74-0.623,1.391-1.012,1.945c-0.387,0.555-0.848,1.024-1.391,1.404
		c-0.537,0.38-1.168,0.66-1.885,0.846c-0.715,0.187-1.547,0.278-2.488,0.278c-0.879,0-1.674-0.116-2.393-0.353
		c-0.717-0.235-1.326-0.596-1.83-1.073c-0.51-0.48-0.9-1.078-1.18-1.785c-0.275-0.707-0.416-1.534-0.416-2.478
		c0-1.044,0.17-2.053,0.506-3.022c0.338-0.971,0.812-1.829,1.432-2.581c0.613-0.749,1.365-1.347,2.26-1.793
		c0.895-0.447,1.896-0.67,3.012-0.67c0.908,0,1.744,0.117,2.486,0.354c0.752,0.237,1.395,0.594,1.926,1.072
		c0.529,0.483,0.941,1.081,1.238,1.799c0.295,0.716,0.445,1.546,0.445,2.489c0,0.639-0.072,1.325-0.203,2.048h-9.639
		C574.821,129.83,574.817,129.905,574.817,129.972 M581.125,126.471c-0.057-0.329-0.172-0.627-0.34-0.898
		c-0.17-0.269-0.412-0.484-0.734-0.644c-0.322-0.158-0.74-0.24-1.264-0.24c-0.504,0-0.953,0.077-1.342,0.227
		c-0.387,0.153-0.725,0.354-1.01,0.607c-0.289,0.254-0.529,0.547-0.721,0.886c-0.193,0.336-0.361,0.69-0.494,1.063h5.994
		C581.215,127.133,581.186,126.8,581.125,126.471"/>
	<polygon fill="#FFFFFF" points="591.866,117.355 588.022,135.412 584.454,135.412 588.274,117.355 	"/>
	<path fill="#FFFFFF" d="M592.586,124.245c0.389-0.547,0.861-0.991,1.416-1.326c0.555-0.337,1.18-0.577,1.871-0.722
		c0.691-0.142,1.408-0.213,2.148-0.213c0.59,0,1.205,0.04,1.85,0.124c0.641,0.085,1.229,0.253,1.768,0.493
		c0.541,0.244,0.982,0.591,1.326,1.037c0.348,0.446,0.514,1.042,0.494,1.781c0,0.625-0.09,1.361-0.277,2.201l-1.164,5.261
		c-0.066,0.238-0.113,0.528-0.139,0.874c-0.023,0.343-0.037,0.644-0.037,0.898c0,0.221,0.039,0.47,0.123,0.758h-3.586v-1.292
		c-0.492,0.558-1.09,0.968-1.799,1.229c-0.707,0.26-1.439,0.39-2.201,0.39c-0.705,0-1.324-0.092-1.859-0.278
		c-0.527-0.186-0.971-0.433-1.324-0.747c-0.355-0.31-0.619-0.672-0.785-1.087c-0.168-0.408-0.252-0.846-0.252-1.3
		c0-1.266,0.432-2.276,1.301-3.037c0.869-0.757,2.094-1.229,3.682-1.416c0.842-0.097,1.576-0.173,2.201-0.229
		c0.619-0.048,1.139-0.127,1.551-0.238c0.418-0.107,0.723-0.268,0.922-0.482c0.207-0.208,0.307-0.525,0.307-0.947
		c0-0.335-0.076-0.605-0.225-0.807c-0.154-0.204-0.344-0.365-0.568-0.481c-0.234-0.116-0.475-0.196-0.736-0.242
		c-0.26-0.04-0.51-0.064-0.746-0.064c-0.641,0-1.215,0.161-1.719,0.471c-0.506,0.312-0.822,0.797-0.936,1.455h-3.367
		C591.946,125.48,592.194,124.795,592.586,124.245 M597.948,129.631c-0.523,0.06-1.047,0.107-1.568,0.139
		c-0.34,0.034-0.666,0.089-0.986,0.168c-0.322,0.076-0.605,0.188-0.848,0.338c-0.244,0.151-0.441,0.358-0.594,0.62
		s-0.23,0.596-0.23,1.001c0,0.49,0.203,0.854,0.596,1.1c0.396,0.245,0.855,0.367,1.379,0.367c0.557,0,1.027-0.089,1.4-0.266
		c0.383-0.179,0.705-0.404,0.967-0.683c0.26-0.278,0.465-0.595,0.615-0.95c0.154-0.354,0.281-0.706,0.383-1.063l0.354-1.264
		C598.959,129.41,598.471,129.573,597.948,129.631"/>
	<path fill="#DD2F3B" d="M211.189,106.02h39.836l11.587-48.766c0,0,1.077-5.124,8.149-5.124c7.073,0,6.179,5.222,6.179,5.222
		l-11.188,48.667h39.616c0,0,11.433-48.386,12.437-52.869c1.284-5.593-0.49-22.695-17.823-22.695c-3.729,0-5.976-0.096-9.607,0.059
		c-8.537,0.366-17.111,4.328-24.497,12.659c0.593-4.79,0.795-6.831,1.016-10.538c-0.227,0.005-15.951,0.384-15.951,0.384
		s-11.398,0.995-19.764,11.164c-8.368,10.17-13.857,35.575-13.857,35.575L211.189,106.02z"/>
	<path fill="#DD2F3B" d="M591.913,62.323c-3.957-1.455-25.248-4.265-29.455-5.553c-1.162-0.329-2.873-1.601-1.932-5.311
		c0.939-3.707,5.059-5.311,9.898-5.311s6.012,1.75,6.279,3.38c0.266,1.63-0.725,5.071-0.725,5.071h34.209c0,0,0.629-4.03,0-8.381
		c-1.191-8.264-9.711-15.762-36.863-15.762c-25.83,0-36.77,6.203-45.248,17.041c-3.066,3.919-4.365,9.286-3.066,16.779
		c0.936,5.412,6.605,10.086,16.352,11.671c10.479,1.705,17.996,3.054,21.604,3.74c5.143,0.944,7.055,3.038,6.312,6.504
		c-0.742,3.469-3.205,5.923-8.967,5.923c-5.764,0-8.67-8.37-7.27-8.302c1.398,0.063-33.494,0-34.525,0
		c-1.648,4.175-2.133,9.695,0.926,14.585c3.059,4.896,7.977,10.521,35.533,10.521c32.119,0,43.855-13.284,43.855-13.284
		s7.559-7.522,7.559-18.837C606.389,65.483,595.868,63.779,591.913,62.323"/>
	<path fill="#DD2F3B" d="M130.797,19.592c0-16.629-24.626-19.313-24.626-19.313c-4.79-0.362-22.71-0.381-31.932,0
		C57.99,0.949,47.251,5.326,37.695,11.861C29.555,17.429,19.62,32.968,15.88,47.356c5.398-6.965,14.876-14.685,25.234-18.495
		c10.358-3.811,18.86-5.96,27.848-5.96c1.661,0,15.877-1.368,15.877,7.155c0,2.431-0.551,6.243-3.242,8.56
		c-4.487,3.863-12.074,3.888-12.074,3.888s-17.163,0.355-26.636,0.355c-9.475,0-28.447,7.875-30.42,18.069
		c-1.067,5.519-9.383,45.094-9.383,45.094h75.325c10.967,0,43.938-8.847,43.938-35.973c0-16.9-20.762-19.315-20.762-19.315
		S130.797,48.557,130.797,19.592 M77.271,72.287c-1.804,7.499-4.889,11.522-24.735,11.522l4.846-20.319
		C61.24,63.49,79.903,61.361,77.271,72.287"/>
	<path fill="#DD2F3B" d="M191.634,30.456c-7.799-0.699-12.428-0.774-24.143,0c-11.444,0.756-30.518,6.775-35.469,24.654h32.579
		c1.031-4.374,4.592-8.335,10.608-8.335c6.013,0,5.64,4.63,5.64,4.63l-2.527,8.755h-12.377c-6.719,0-21.554,1.936-32.762,8.5
		c-9.325,5.459-13.008,15.541-13.008,20.22c0,14.394,9.146,20.038,24.141,20.038c14.996,0,25.108-8.934,25.108-8.934
		s-0.715,6.036-0.313,6.036h34.837c0,0,9.311-40.225,12.236-52.869C219.455,39.017,207.172,31.587,191.634,30.456 M173.645,82.155
		c-0.639,2.418-2.283,5.21-4.46,6.454c-2.375,1.356-5.607,1.798-9.069,1.061c-3.154-0.672-4.934-3.25-4.614-5.861
		c0.442-3.64,2.25-6.782,6.718-8.571c4.02-1.611,11.109-1.423,13.314-1.167C175.234,75.533,174.764,77.915,173.645,82.155"/>
	<path fill="#DD2F3B" d="M398.547,9.589c-9.791,8.143-14.391,29.242-14.391,29.242s-5.258-8.375-21.354-8.375
		c-16.099,0-28.941,7.507-35.248,18.108c-6.307,10.598-9.243,19.951-10.327,33.068c-1.084,13.114,7.309,27.286,26.02,27.286
		c18.713,0,28.486-10.864,28.486-10.864l-1.205,7.969h37.663L433.061,0.278C421.951,0.278,408.338,1.446,398.547,9.589
		 M376.66,70.688c-2.607,10.79-5.306,16.931-13.027,16.931c-7.719,0-7.256-8.732-5.115-18.095
		c2.139-9.365,5.487-18.097,13.859-18.097C380.751,51.428,379.265,59.897,376.66,70.688"/>
	<path fill="#DD2F3B" d="M515.622,75.601c1.781-5.341,5.088-19.082,0-30.177c-3.166-6.904-10.297-14.967-36.453-14.967
		c-22.57,0-45.79,9.387-53.352,29.704c-8.165,21.925-8.211,48.758,33.795,48.758c35.572,0,47.863-12.168,53.113-25.106
		c-2.24,0-32.912-0.484-34.281-0.484c-1.104,2.996-4.182,7.406-12.734,7.406c-8.557,0-8.486-7.147-6.482-15.133H515.622z
		 M476.266,48.462c7.715,0,8.561,4.724,7.402,11.638c-5.166,0-15.396,0.06-20.576,0.06
		C465.204,53.568,467.975,48.462,476.266,48.462"/>
</g>
</svg>
